<mxfile host="app.diagrams.net" modified="2023-10-01T23:54:53.145Z" agent="Mozilla/5.0 (Windows NT 10.0; Win64; x64) AppleWebKit/537.36 (KHTML, like Gecko) Chrome/117.0.0.0 Safari/537.36" etag="g7KetQVzuV_C9gdgApQY" version="21.7.4" type="device">
  <diagram name="Page-1" id="STU4MmB7CRP79dbCIt42">
    <mxGraphModel dx="794" dy="442" grid="1" gridSize="10" guides="1" tooltips="1" connect="1" arrows="1" fold="1" page="1" pageScale="1" pageWidth="850" pageHeight="1100" math="0" shadow="0">
      <root>
        <mxCell id="0" />
        <mxCell id="1" parent="0" />
        <mxCell id="FCIWkxXa6PMADweJJjS5-6" value="" style="shape=table;startSize=0;container=1;collapsible=0;childLayout=tableLayout;" vertex="1" parent="1">
          <mxGeometry x="200" y="40" width="270" height="40" as="geometry" />
        </mxCell>
        <mxCell id="FCIWkxXa6PMADweJJjS5-7" value="" style="shape=tableRow;horizontal=0;startSize=0;swimlaneHead=0;swimlaneBody=0;strokeColor=inherit;top=0;left=0;bottom=0;right=0;collapsible=0;dropTarget=0;fillColor=none;points=[[0,0.5],[1,0.5]];portConstraint=eastwest;" vertex="1" parent="FCIWkxXa6PMADweJJjS5-6">
          <mxGeometry width="270" height="40" as="geometry" />
        </mxCell>
        <mxCell id="FCIWkxXa6PMADweJJjS5-8" value="&lt;b&gt;&lt;u&gt;EmpID&lt;/u&gt;&lt;/b&gt;" style="shape=partialRectangle;html=1;whiteSpace=wrap;connectable=0;strokeColor=inherit;overflow=hidden;fillColor=none;top=0;left=0;bottom=0;right=0;pointerEvents=1;" vertex="1" parent="FCIWkxXa6PMADweJJjS5-7">
          <mxGeometry width="90" height="40" as="geometry">
            <mxRectangle width="90" height="40" as="alternateBounds" />
          </mxGeometry>
        </mxCell>
        <mxCell id="FCIWkxXa6PMADweJJjS5-9" value="LastName" style="shape=partialRectangle;html=1;whiteSpace=wrap;connectable=0;strokeColor=inherit;overflow=hidden;fillColor=none;top=0;left=0;bottom=0;right=0;pointerEvents=1;" vertex="1" parent="FCIWkxXa6PMADweJJjS5-7">
          <mxGeometry x="90" width="90" height="40" as="geometry">
            <mxRectangle width="90" height="40" as="alternateBounds" />
          </mxGeometry>
        </mxCell>
        <mxCell id="FCIWkxXa6PMADweJJjS5-10" value="FirstName" style="shape=partialRectangle;html=1;whiteSpace=wrap;connectable=0;strokeColor=inherit;overflow=hidden;fillColor=none;top=0;left=0;bottom=0;right=0;pointerEvents=1;" vertex="1" parent="FCIWkxXa6PMADweJJjS5-7">
          <mxGeometry x="180" width="90" height="40" as="geometry">
            <mxRectangle width="90" height="40" as="alternateBounds" />
          </mxGeometry>
        </mxCell>
        <mxCell id="FCIWkxXa6PMADweJJjS5-11" value="Employees" style="text;html=1;align=center;verticalAlign=middle;resizable=0;points=[];autosize=1;strokeColor=none;fillColor=none;" vertex="1" parent="1">
          <mxGeometry x="110" y="45" width="80" height="30" as="geometry" />
        </mxCell>
        <mxCell id="FCIWkxXa6PMADweJJjS5-12" value="" style="shape=table;startSize=0;container=1;collapsible=0;childLayout=tableLayout;" vertex="1" parent="1">
          <mxGeometry x="385" y="160" width="270" height="40" as="geometry" />
        </mxCell>
        <mxCell id="FCIWkxXa6PMADweJJjS5-13" value="" style="shape=tableRow;horizontal=0;startSize=0;swimlaneHead=0;swimlaneBody=0;strokeColor=inherit;top=0;left=0;bottom=0;right=0;collapsible=0;dropTarget=0;fillColor=none;points=[[0,0.5],[1,0.5]];portConstraint=eastwest;" vertex="1" parent="FCIWkxXa6PMADweJJjS5-12">
          <mxGeometry width="270" height="40" as="geometry" />
        </mxCell>
        <mxCell id="FCIWkxXa6PMADweJJjS5-14" value="&lt;b&gt;&lt;u&gt;EmpID&lt;/u&gt;&lt;/b&gt;" style="shape=partialRectangle;html=1;whiteSpace=wrap;connectable=0;strokeColor=inherit;overflow=hidden;fillColor=none;top=0;left=0;bottom=0;right=0;pointerEvents=1;" vertex="1" parent="FCIWkxXa6PMADweJJjS5-13">
          <mxGeometry width="90" height="40" as="geometry">
            <mxRectangle width="90" height="40" as="alternateBounds" />
          </mxGeometry>
        </mxCell>
        <mxCell id="FCIWkxXa6PMADweJJjS5-15" value="&lt;b&gt;&lt;u&gt;CcID&lt;/u&gt;&lt;/b&gt;" style="shape=partialRectangle;html=1;whiteSpace=wrap;connectable=0;strokeColor=inherit;overflow=hidden;fillColor=none;top=0;left=0;bottom=0;right=0;pointerEvents=1;" vertex="1" parent="FCIWkxXa6PMADweJJjS5-13">
          <mxGeometry x="90" width="90" height="40" as="geometry">
            <mxRectangle width="90" height="40" as="alternateBounds" />
          </mxGeometry>
        </mxCell>
        <mxCell id="FCIWkxXa6PMADweJJjS5-16" value="HourasPerWeek" style="shape=partialRectangle;html=1;whiteSpace=wrap;connectable=0;strokeColor=inherit;overflow=hidden;fillColor=none;top=0;left=0;bottom=0;right=0;pointerEvents=1;" vertex="1" parent="FCIWkxXa6PMADweJJjS5-13">
          <mxGeometry x="180" width="90" height="40" as="geometry">
            <mxRectangle width="90" height="40" as="alternateBounds" />
          </mxGeometry>
        </mxCell>
        <mxCell id="FCIWkxXa6PMADweJJjS5-17" value="Employs" style="text;html=1;align=center;verticalAlign=middle;resizable=0;points=[];autosize=1;strokeColor=none;fillColor=none;" vertex="1" parent="1">
          <mxGeometry x="307" y="165" width="70" height="30" as="geometry" />
        </mxCell>
        <mxCell id="FCIWkxXa6PMADweJJjS5-18" value="" style="shape=table;startSize=0;container=1;collapsible=0;childLayout=tableLayout;" vertex="1" parent="1">
          <mxGeometry x="101" y="330" width="260" height="40" as="geometry" />
        </mxCell>
        <mxCell id="FCIWkxXa6PMADweJJjS5-19" value="" style="shape=tableRow;horizontal=0;startSize=0;swimlaneHead=0;swimlaneBody=0;strokeColor=inherit;top=0;left=0;bottom=0;right=0;collapsible=0;dropTarget=0;fillColor=none;points=[[0,0.5],[1,0.5]];portConstraint=eastwest;" vertex="1" parent="FCIWkxXa6PMADweJJjS5-18">
          <mxGeometry width="260" height="40" as="geometry" />
        </mxCell>
        <mxCell id="FCIWkxXa6PMADweJJjS5-20" value="&lt;p style=&quot;line-height: 50%;&quot;&gt;EmpID&lt;br&gt;..............&lt;br&gt;&lt;/p&gt;" style="shape=partialRectangle;html=1;whiteSpace=wrap;connectable=0;strokeColor=inherit;overflow=hidden;fillColor=none;top=0;left=0;bottom=0;right=0;pointerEvents=1;" vertex="1" parent="FCIWkxXa6PMADweJJjS5-19">
          <mxGeometry width="87" height="40" as="geometry">
            <mxRectangle width="87" height="40" as="alternateBounds" />
          </mxGeometry>
        </mxCell>
        <mxCell id="FCIWkxXa6PMADweJJjS5-21" value="CcName" style="shape=partialRectangle;html=1;whiteSpace=wrap;connectable=0;strokeColor=inherit;overflow=hidden;fillColor=none;top=0;left=0;bottom=0;right=0;pointerEvents=1;" vertex="1" parent="FCIWkxXa6PMADweJJjS5-19">
          <mxGeometry x="87" width="86" height="40" as="geometry">
            <mxRectangle width="86" height="40" as="alternateBounds" />
          </mxGeometry>
        </mxCell>
        <mxCell id="FCIWkxXa6PMADweJJjS5-22" value="&lt;p style=&quot;line-height: 40%;&quot;&gt;&lt;b&gt;&lt;u&gt;CcID&lt;/u&gt;&lt;/b&gt;&lt;/p&gt;" style="shape=partialRectangle;html=1;whiteSpace=wrap;connectable=0;strokeColor=inherit;overflow=hidden;fillColor=none;top=0;left=0;bottom=0;right=0;pointerEvents=1;" vertex="1" parent="FCIWkxXa6PMADweJJjS5-19">
          <mxGeometry x="173" width="87" height="40" as="geometry">
            <mxRectangle width="87" height="40" as="alternateBounds" />
          </mxGeometry>
        </mxCell>
        <mxCell id="FCIWkxXa6PMADweJJjS5-24" value="CareCenter" style="text;html=1;align=center;verticalAlign=middle;resizable=0;points=[];autosize=1;strokeColor=none;fillColor=none;" vertex="1" parent="1">
          <mxGeometry x="11" y="335" width="90" height="30" as="geometry" />
        </mxCell>
        <mxCell id="FCIWkxXa6PMADweJJjS5-25" value="" style="shape=table;startSize=0;container=1;collapsible=0;childLayout=tableLayout;" vertex="1" parent="1">
          <mxGeometry x="300" y="420" width="260" height="40" as="geometry" />
        </mxCell>
        <mxCell id="FCIWkxXa6PMADweJJjS5-26" value="" style="shape=tableRow;horizontal=0;startSize=0;swimlaneHead=0;swimlaneBody=0;strokeColor=inherit;top=0;left=0;bottom=0;right=0;collapsible=0;dropTarget=0;fillColor=none;points=[[0,0.5],[1,0.5]];portConstraint=eastwest;" vertex="1" parent="FCIWkxXa6PMADweJJjS5-25">
          <mxGeometry width="260" height="40" as="geometry" />
        </mxCell>
        <mxCell id="FCIWkxXa6PMADweJJjS5-27" value="&lt;b&gt;&lt;u&gt;RoomID&lt;/u&gt;&lt;/b&gt;" style="shape=partialRectangle;html=1;whiteSpace=wrap;connectable=0;strokeColor=inherit;overflow=hidden;fillColor=none;top=0;left=0;bottom=0;right=0;pointerEvents=1;" vertex="1" parent="FCIWkxXa6PMADweJJjS5-26">
          <mxGeometry width="87" height="40" as="geometry">
            <mxRectangle width="87" height="40" as="alternateBounds" />
          </mxGeometry>
        </mxCell>
        <mxCell id="FCIWkxXa6PMADweJJjS5-28" value="NumOfBeds" style="shape=partialRectangle;html=1;whiteSpace=wrap;connectable=0;strokeColor=inherit;overflow=hidden;fillColor=none;top=0;left=0;bottom=0;right=0;pointerEvents=1;" vertex="1" parent="FCIWkxXa6PMADweJJjS5-26">
          <mxGeometry x="87" width="86" height="40" as="geometry">
            <mxRectangle width="86" height="40" as="alternateBounds" />
          </mxGeometry>
        </mxCell>
        <mxCell id="FCIWkxXa6PMADweJJjS5-29" value="&lt;p style=&quot;line-height: 120%;&quot;&gt;&lt;b&gt;&lt;u&gt;CcID&lt;/u&gt;&lt;/b&gt;&lt;br&gt;&lt;/p&gt;" style="shape=partialRectangle;html=1;whiteSpace=wrap;connectable=0;strokeColor=inherit;overflow=hidden;fillColor=none;top=0;left=0;bottom=0;right=0;pointerEvents=1;" vertex="1" parent="FCIWkxXa6PMADweJJjS5-26">
          <mxGeometry x="173" width="87" height="40" as="geometry">
            <mxRectangle width="87" height="40" as="alternateBounds" />
          </mxGeometry>
        </mxCell>
        <mxCell id="FCIWkxXa6PMADweJJjS5-30" value="Room" style="text;html=1;align=center;verticalAlign=middle;resizable=0;points=[];autosize=1;strokeColor=none;fillColor=none;" vertex="1" parent="1">
          <mxGeometry x="247" y="425" width="60" height="30" as="geometry" />
        </mxCell>
        <mxCell id="FCIWkxXa6PMADweJJjS5-31" value="" style="shape=table;startSize=0;container=1;collapsible=0;childLayout=tableLayout;" vertex="1" parent="1">
          <mxGeometry x="130" y="530" width="310" height="40" as="geometry" />
        </mxCell>
        <mxCell id="FCIWkxXa6PMADweJJjS5-32" value="" style="shape=tableRow;horizontal=0;startSize=0;swimlaneHead=0;swimlaneBody=0;strokeColor=inherit;top=0;left=0;bottom=0;right=0;collapsible=0;dropTarget=0;fillColor=none;points=[[0,0.5],[1,0.5]];portConstraint=eastwest;" vertex="1" parent="FCIWkxXa6PMADweJJjS5-31">
          <mxGeometry width="310" height="40" as="geometry" />
        </mxCell>
        <mxCell id="FCIWkxXa6PMADweJJjS5-33" value="&lt;b&gt;&lt;u&gt;BedID&lt;/u&gt;&lt;/b&gt;" style="shape=partialRectangle;html=1;whiteSpace=wrap;connectable=0;strokeColor=inherit;overflow=hidden;fillColor=none;top=0;left=0;bottom=0;right=0;pointerEvents=1;" vertex="1" parent="FCIWkxXa6PMADweJJjS5-32">
          <mxGeometry width="78" height="40" as="geometry">
            <mxRectangle width="78" height="40" as="alternateBounds" />
          </mxGeometry>
        </mxCell>
        <mxCell id="FCIWkxXa6PMADweJJjS5-34" value="&lt;b&gt;&lt;u&gt;CcID&lt;/u&gt;&lt;/b&gt;" style="shape=partialRectangle;html=1;whiteSpace=wrap;connectable=0;strokeColor=inherit;overflow=hidden;fillColor=none;top=0;left=0;bottom=0;right=0;pointerEvents=1;" vertex="1" parent="FCIWkxXa6PMADweJJjS5-32">
          <mxGeometry x="78" width="77" height="40" as="geometry">
            <mxRectangle width="77" height="40" as="alternateBounds" />
          </mxGeometry>
        </mxCell>
        <mxCell id="FCIWkxXa6PMADweJJjS5-35" value="&lt;b&gt;&lt;u&gt;RoomID&lt;/u&gt;&lt;/b&gt;" style="shape=partialRectangle;html=1;whiteSpace=wrap;connectable=0;strokeColor=inherit;overflow=hidden;fillColor=none;top=0;left=0;bottom=0;right=0;pointerEvents=1;" vertex="1" parent="FCIWkxXa6PMADweJJjS5-32">
          <mxGeometry x="155" width="78" height="40" as="geometry">
            <mxRectangle width="78" height="40" as="alternateBounds" />
          </mxGeometry>
        </mxCell>
        <mxCell id="FCIWkxXa6PMADweJJjS5-36" value="BedType" style="shape=partialRectangle;html=1;whiteSpace=wrap;connectable=0;strokeColor=inherit;overflow=hidden;fillColor=none;top=0;left=0;bottom=0;right=0;pointerEvents=1;" vertex="1" parent="FCIWkxXa6PMADweJJjS5-32">
          <mxGeometry x="233" width="77" height="40" as="geometry">
            <mxRectangle width="77" height="40" as="alternateBounds" />
          </mxGeometry>
        </mxCell>
        <mxCell id="FCIWkxXa6PMADweJJjS5-37" value="Bed" style="text;html=1;align=center;verticalAlign=middle;resizable=0;points=[];autosize=1;strokeColor=none;fillColor=none;" vertex="1" parent="1">
          <mxGeometry x="70" y="538" width="40" height="30" as="geometry" />
        </mxCell>
        <mxCell id="FCIWkxXa6PMADweJJjS5-38" value="" style="shape=table;startSize=0;container=1;collapsible=0;childLayout=tableLayout;" vertex="1" parent="1">
          <mxGeometry x="130" y="640" width="625" height="40" as="geometry" />
        </mxCell>
        <mxCell id="FCIWkxXa6PMADweJJjS5-39" value="" style="shape=tableRow;horizontal=0;startSize=0;swimlaneHead=0;swimlaneBody=0;strokeColor=inherit;top=0;left=0;bottom=0;right=0;collapsible=0;dropTarget=0;fillColor=none;points=[[0,0.5],[1,0.5]];portConstraint=eastwest;" vertex="1" parent="FCIWkxXa6PMADweJJjS5-38">
          <mxGeometry width="625" height="40" as="geometry" />
        </mxCell>
        <mxCell id="FCIWkxXa6PMADweJJjS5-40" value="&lt;b&gt;&lt;u&gt;PatientID&lt;/u&gt;&lt;/b&gt;" style="shape=partialRectangle;html=1;whiteSpace=wrap;connectable=0;strokeColor=inherit;overflow=hidden;fillColor=none;top=0;left=0;bottom=0;right=0;pointerEvents=1;" vertex="1" parent="FCIWkxXa6PMADweJJjS5-39">
          <mxGeometry width="89" height="40" as="geometry">
            <mxRectangle width="89" height="40" as="alternateBounds" />
          </mxGeometry>
        </mxCell>
        <mxCell id="FCIWkxXa6PMADweJJjS5-41" value="LastName" style="shape=partialRectangle;html=1;whiteSpace=wrap;connectable=0;strokeColor=inherit;overflow=hidden;fillColor=none;top=0;left=0;bottom=0;right=0;pointerEvents=1;" vertex="1" parent="FCIWkxXa6PMADweJJjS5-39">
          <mxGeometry x="89" width="89" height="40" as="geometry">
            <mxRectangle width="89" height="40" as="alternateBounds" />
          </mxGeometry>
        </mxCell>
        <mxCell id="FCIWkxXa6PMADweJJjS5-42" value="FirstName" style="shape=partialRectangle;html=1;whiteSpace=wrap;connectable=0;strokeColor=inherit;overflow=hidden;fillColor=none;top=0;left=0;bottom=0;right=0;pointerEvents=1;" vertex="1" parent="FCIWkxXa6PMADweJJjS5-39">
          <mxGeometry x="178" width="89" height="40" as="geometry">
            <mxRectangle width="89" height="40" as="alternateBounds" />
          </mxGeometry>
        </mxCell>
        <mxCell id="FCIWkxXa6PMADweJJjS5-43" value="&lt;p style=&quot;line-height: 60%;&quot;&gt;PhyID&lt;br&gt;.............&lt;/p&gt;" style="shape=partialRectangle;html=1;whiteSpace=wrap;connectable=0;strokeColor=inherit;overflow=hidden;fillColor=none;top=0;left=0;bottom=0;right=0;pointerEvents=1;" vertex="1" parent="FCIWkxXa6PMADweJJjS5-39">
          <mxGeometry x="267" width="91" height="40" as="geometry">
            <mxRectangle width="91" height="40" as="alternateBounds" />
          </mxGeometry>
        </mxCell>
        <mxCell id="FCIWkxXa6PMADweJJjS5-44" value="&lt;p style=&quot;line-height: 60%;&quot;&gt;BedID&lt;br&gt;.............&lt;/p&gt;" style="shape=partialRectangle;html=1;whiteSpace=wrap;connectable=0;strokeColor=inherit;overflow=hidden;fillColor=none;top=0;left=0;bottom=0;right=0;pointerEvents=1;" vertex="1" parent="FCIWkxXa6PMADweJJjS5-39">
          <mxGeometry x="358" width="89" height="40" as="geometry">
            <mxRectangle width="89" height="40" as="alternateBounds" />
          </mxGeometry>
        </mxCell>
        <mxCell id="FCIWkxXa6PMADweJJjS5-45" value="&lt;p style=&quot;line-height: 50%;&quot;&gt;RoomID&lt;br&gt;...............&lt;/p&gt;" style="shape=partialRectangle;html=1;whiteSpace=wrap;connectable=0;strokeColor=inherit;overflow=hidden;fillColor=none;top=0;left=0;bottom=0;right=0;pointerEvents=1;" vertex="1" parent="FCIWkxXa6PMADweJJjS5-39">
          <mxGeometry x="447" width="89" height="40" as="geometry">
            <mxRectangle width="89" height="40" as="alternateBounds" />
          </mxGeometry>
        </mxCell>
        <mxCell id="FCIWkxXa6PMADweJJjS5-46" value="&lt;p style=&quot;line-height: 50%;&quot;&gt;CcID&lt;br&gt;............&lt;br&gt;&lt;/p&gt;" style="shape=partialRectangle;html=1;whiteSpace=wrap;connectable=0;strokeColor=inherit;overflow=hidden;fillColor=none;top=0;left=0;bottom=0;right=0;pointerEvents=1;" vertex="1" parent="FCIWkxXa6PMADweJJjS5-39">
          <mxGeometry x="536" width="89" height="40" as="geometry">
            <mxRectangle width="89" height="40" as="alternateBounds" />
          </mxGeometry>
        </mxCell>
        <mxCell id="FCIWkxXa6PMADweJJjS5-47" value="Patient" style="text;html=1;align=center;verticalAlign=middle;resizable=0;points=[];autosize=1;strokeColor=none;fillColor=none;" vertex="1" parent="1">
          <mxGeometry x="60" y="645" width="60" height="30" as="geometry" />
        </mxCell>
        <mxCell id="FCIWkxXa6PMADweJJjS5-48" value="" style="shape=table;startSize=0;container=1;collapsible=0;childLayout=tableLayout;" vertex="1" parent="1">
          <mxGeometry x="247" y="735" width="530" height="40" as="geometry" />
        </mxCell>
        <mxCell id="FCIWkxXa6PMADweJJjS5-49" value="" style="shape=tableRow;horizontal=0;startSize=0;swimlaneHead=0;swimlaneBody=0;strokeColor=inherit;top=0;left=0;bottom=0;right=0;collapsible=0;dropTarget=0;fillColor=none;points=[[0,0.5],[1,0.5]];portConstraint=eastwest;" vertex="1" parent="FCIWkxXa6PMADweJJjS5-48">
          <mxGeometry width="530" height="40" as="geometry" />
        </mxCell>
        <mxCell id="FCIWkxXa6PMADweJJjS5-50" value="&lt;b&gt;&lt;u&gt;TreatID&lt;/u&gt;&lt;/b&gt;" style="shape=partialRectangle;html=1;whiteSpace=wrap;connectable=0;strokeColor=inherit;overflow=hidden;fillColor=none;top=0;left=0;bottom=0;right=0;pointerEvents=1;" vertex="1" parent="FCIWkxXa6PMADweJJjS5-49">
          <mxGeometry width="88" height="40" as="geometry">
            <mxRectangle width="88" height="40" as="alternateBounds" />
          </mxGeometry>
        </mxCell>
        <mxCell id="FCIWkxXa6PMADweJJjS5-51" value="&lt;b&gt;&lt;u&gt;PatientID&lt;/u&gt;&lt;/b&gt;" style="shape=partialRectangle;html=1;whiteSpace=wrap;connectable=0;strokeColor=inherit;overflow=hidden;fillColor=none;top=0;left=0;bottom=0;right=0;pointerEvents=1;" vertex="1" parent="FCIWkxXa6PMADweJJjS5-49">
          <mxGeometry x="88" width="89" height="40" as="geometry">
            <mxRectangle width="89" height="40" as="alternateBounds" />
          </mxGeometry>
        </mxCell>
        <mxCell id="FCIWkxXa6PMADweJJjS5-52" value="&lt;b&gt;&lt;u&gt;PhyID&lt;/u&gt;&lt;/b&gt;" style="shape=partialRectangle;html=1;whiteSpace=wrap;connectable=0;strokeColor=inherit;overflow=hidden;fillColor=none;top=0;left=0;bottom=0;right=0;pointerEvents=1;" vertex="1" parent="FCIWkxXa6PMADweJJjS5-49">
          <mxGeometry x="177" width="88" height="40" as="geometry">
            <mxRectangle width="88" height="40" as="alternateBounds" />
          </mxGeometry>
        </mxCell>
        <mxCell id="FCIWkxXa6PMADweJJjS5-53" value="&lt;b&gt;&lt;u&gt;Date&lt;/u&gt;&lt;/b&gt;" style="shape=partialRectangle;html=1;whiteSpace=wrap;connectable=0;strokeColor=inherit;overflow=hidden;fillColor=none;top=0;left=0;bottom=0;right=0;pointerEvents=1;" vertex="1" parent="FCIWkxXa6PMADweJJjS5-49">
          <mxGeometry x="265" width="88" height="40" as="geometry">
            <mxRectangle width="88" height="40" as="alternateBounds" />
          </mxGeometry>
        </mxCell>
        <mxCell id="FCIWkxXa6PMADweJJjS5-54" value="Time" style="shape=partialRectangle;html=1;whiteSpace=wrap;connectable=0;strokeColor=inherit;overflow=hidden;fillColor=none;top=0;left=0;bottom=0;right=0;pointerEvents=1;" vertex="1" parent="FCIWkxXa6PMADweJJjS5-49">
          <mxGeometry x="353" width="89" height="40" as="geometry">
            <mxRectangle width="89" height="40" as="alternateBounds" />
          </mxGeometry>
        </mxCell>
        <mxCell id="FCIWkxXa6PMADweJJjS5-55" value="Result" style="shape=partialRectangle;html=1;whiteSpace=wrap;connectable=0;strokeColor=inherit;overflow=hidden;fillColor=none;top=0;left=0;bottom=0;right=0;pointerEvents=1;" vertex="1" parent="FCIWkxXa6PMADweJJjS5-49">
          <mxGeometry x="442" width="88" height="40" as="geometry">
            <mxRectangle width="88" height="40" as="alternateBounds" />
          </mxGeometry>
        </mxCell>
        <mxCell id="FCIWkxXa6PMADweJJjS5-56" value="Treat" style="text;html=1;align=center;verticalAlign=middle;resizable=0;points=[];autosize=1;strokeColor=none;fillColor=none;" vertex="1" parent="1">
          <mxGeometry x="197" y="745" width="50" height="30" as="geometry" />
        </mxCell>
        <mxCell id="FCIWkxXa6PMADweJJjS5-57" value="" style="shape=table;startSize=0;container=1;collapsible=0;childLayout=tableLayout;" vertex="1" parent="1">
          <mxGeometry x="298" y="830" width="159" height="40" as="geometry" />
        </mxCell>
        <mxCell id="FCIWkxXa6PMADweJJjS5-58" value="" style="shape=tableRow;horizontal=0;startSize=0;swimlaneHead=0;swimlaneBody=0;strokeColor=inherit;top=0;left=0;bottom=0;right=0;collapsible=0;dropTarget=0;fillColor=none;points=[[0,0.5],[1,0.5]];portConstraint=eastwest;" vertex="1" parent="FCIWkxXa6PMADweJJjS5-57">
          <mxGeometry width="159" height="40" as="geometry" />
        </mxCell>
        <mxCell id="FCIWkxXa6PMADweJJjS5-59" value="&lt;b&gt;&lt;u&gt;TreatID&lt;/u&gt;&lt;/b&gt;" style="shape=partialRectangle;html=1;whiteSpace=wrap;connectable=0;strokeColor=inherit;overflow=hidden;fillColor=none;top=0;left=0;bottom=0;right=0;pointerEvents=1;" vertex="1" parent="FCIWkxXa6PMADweJJjS5-58">
          <mxGeometry width="80" height="40" as="geometry">
            <mxRectangle width="80" height="40" as="alternateBounds" />
          </mxGeometry>
        </mxCell>
        <mxCell id="FCIWkxXa6PMADweJJjS5-60" value="Description" style="shape=partialRectangle;html=1;whiteSpace=wrap;connectable=0;strokeColor=inherit;overflow=hidden;fillColor=none;top=0;left=0;bottom=0;right=0;pointerEvents=1;" vertex="1" parent="FCIWkxXa6PMADweJJjS5-58">
          <mxGeometry x="80" width="79" height="40" as="geometry">
            <mxRectangle width="79" height="40" as="alternateBounds" />
          </mxGeometry>
        </mxCell>
        <mxCell id="FCIWkxXa6PMADweJJjS5-61" value="Treatment" style="text;html=1;align=center;verticalAlign=middle;resizable=0;points=[];autosize=1;strokeColor=none;fillColor=none;" vertex="1" parent="1">
          <mxGeometry x="218" y="835" width="80" height="30" as="geometry" />
        </mxCell>
        <mxCell id="FCIWkxXa6PMADweJJjS5-62" value="" style="shape=table;startSize=0;container=1;collapsible=0;childLayout=tableLayout;" vertex="1" parent="1">
          <mxGeometry x="531.5" y="830" width="278.5" height="40" as="geometry" />
        </mxCell>
        <mxCell id="FCIWkxXa6PMADweJJjS5-63" value="" style="shape=tableRow;horizontal=0;startSize=0;swimlaneHead=0;swimlaneBody=0;strokeColor=inherit;top=0;left=0;bottom=0;right=0;collapsible=0;dropTarget=0;fillColor=none;points=[[0,0.5],[1,0.5]];portConstraint=eastwest;" vertex="1" parent="FCIWkxXa6PMADweJJjS5-62">
          <mxGeometry width="278.5" height="40" as="geometry" />
        </mxCell>
        <mxCell id="FCIWkxXa6PMADweJJjS5-64" value="FirstName" style="shape=partialRectangle;html=1;whiteSpace=wrap;connectable=0;strokeColor=inherit;overflow=hidden;fillColor=none;top=0;left=0;bottom=0;right=0;pointerEvents=1;" vertex="1" parent="FCIWkxXa6PMADweJJjS5-63">
          <mxGeometry width="93" height="40" as="geometry">
            <mxRectangle width="93" height="40" as="alternateBounds" />
          </mxGeometry>
        </mxCell>
        <mxCell id="FCIWkxXa6PMADweJJjS5-65" value="LastName" style="shape=partialRectangle;html=1;whiteSpace=wrap;connectable=0;strokeColor=inherit;overflow=hidden;fillColor=none;top=0;left=0;bottom=0;right=0;pointerEvents=1;" vertex="1" parent="FCIWkxXa6PMADweJJjS5-63">
          <mxGeometry x="93" width="93" height="40" as="geometry">
            <mxRectangle width="93" height="40" as="alternateBounds" />
          </mxGeometry>
        </mxCell>
        <mxCell id="FCIWkxXa6PMADweJJjS5-66" value="&lt;b&gt;&lt;u&gt;PhyID&lt;/u&gt;&lt;/b&gt;" style="shape=partialRectangle;html=1;whiteSpace=wrap;connectable=0;strokeColor=inherit;overflow=hidden;fillColor=none;top=0;left=0;bottom=0;right=0;pointerEvents=1;" vertex="1" parent="FCIWkxXa6PMADweJJjS5-63">
          <mxGeometry x="186" width="93" height="40" as="geometry">
            <mxRectangle width="93" height="40" as="alternateBounds" />
          </mxGeometry>
        </mxCell>
        <mxCell id="FCIWkxXa6PMADweJJjS5-67" value="Physician" style="text;html=1;align=center;verticalAlign=middle;resizable=0;points=[];autosize=1;strokeColor=none;fillColor=none;" vertex="1" parent="1">
          <mxGeometry x="460" y="835" width="70" height="30" as="geometry" />
        </mxCell>
        <mxCell id="FCIWkxXa6PMADweJJjS5-68" value="" style="shape=table;startSize=0;container=1;collapsible=0;childLayout=tableLayout;" vertex="1" parent="1">
          <mxGeometry x="280" y="953" width="408" height="40" as="geometry" />
        </mxCell>
        <mxCell id="FCIWkxXa6PMADweJJjS5-69" value="" style="shape=tableRow;horizontal=0;startSize=0;swimlaneHead=0;swimlaneBody=0;strokeColor=inherit;top=0;left=0;bottom=0;right=0;collapsible=0;dropTarget=0;fillColor=none;points=[[0,0.5],[1,0.5]];portConstraint=eastwest;" vertex="1" parent="FCIWkxXa6PMADweJJjS5-68">
          <mxGeometry width="408" height="40" as="geometry" />
        </mxCell>
        <mxCell id="FCIWkxXa6PMADweJJjS5-70" value="&lt;b&gt;&lt;u&gt;PatientID&lt;/u&gt;&lt;/b&gt;" style="shape=partialRectangle;html=1;whiteSpace=wrap;connectable=0;strokeColor=inherit;overflow=hidden;fillColor=none;top=0;left=0;bottom=0;right=0;pointerEvents=1;" vertex="1" parent="FCIWkxXa6PMADweJJjS5-69">
          <mxGeometry width="82" height="40" as="geometry">
            <mxRectangle width="82" height="40" as="alternateBounds" />
          </mxGeometry>
        </mxCell>
        <mxCell id="FCIWkxXa6PMADweJJjS5-71" value="&lt;u&gt;&lt;b&gt;ItemID&lt;/b&gt;&lt;/u&gt;" style="shape=partialRectangle;html=1;whiteSpace=wrap;connectable=0;strokeColor=inherit;overflow=hidden;fillColor=none;top=0;left=0;bottom=0;right=0;pointerEvents=1;" vertex="1" parent="FCIWkxXa6PMADweJJjS5-69">
          <mxGeometry x="82" width="81" height="40" as="geometry">
            <mxRectangle width="81" height="40" as="alternateBounds" />
          </mxGeometry>
        </mxCell>
        <mxCell id="FCIWkxXa6PMADweJJjS5-72" value="Date" style="shape=partialRectangle;html=1;whiteSpace=wrap;connectable=0;strokeColor=inherit;overflow=hidden;fillColor=none;top=0;left=0;bottom=0;right=0;pointerEvents=1;" vertex="1" parent="FCIWkxXa6PMADweJJjS5-69">
          <mxGeometry x="163" width="82" height="40" as="geometry">
            <mxRectangle width="82" height="40" as="alternateBounds" />
          </mxGeometry>
        </mxCell>
        <mxCell id="FCIWkxXa6PMADweJJjS5-73" value="Quantity" style="shape=partialRectangle;html=1;whiteSpace=wrap;connectable=0;strokeColor=inherit;overflow=hidden;fillColor=none;top=0;left=0;bottom=0;right=0;pointerEvents=1;" vertex="1" parent="FCIWkxXa6PMADweJJjS5-69">
          <mxGeometry x="245" width="81" height="40" as="geometry">
            <mxRectangle width="81" height="40" as="alternateBounds" />
          </mxGeometry>
        </mxCell>
        <mxCell id="FCIWkxXa6PMADweJJjS5-74" value="TotalCost" style="shape=partialRectangle;html=1;whiteSpace=wrap;connectable=0;strokeColor=inherit;overflow=hidden;fillColor=none;top=0;left=0;bottom=0;right=0;pointerEvents=1;" vertex="1" parent="FCIWkxXa6PMADweJJjS5-69">
          <mxGeometry x="326" width="82" height="40" as="geometry">
            <mxRectangle width="82" height="40" as="alternateBounds" />
          </mxGeometry>
        </mxCell>
        <mxCell id="FCIWkxXa6PMADweJJjS5-75" value="Consumes" style="text;html=1;align=center;verticalAlign=middle;resizable=0;points=[];autosize=1;strokeColor=none;fillColor=none;" vertex="1" parent="1">
          <mxGeometry x="200" y="958" width="80" height="30" as="geometry" />
        </mxCell>
        <mxCell id="FCIWkxXa6PMADweJJjS5-76" value="" style="shape=table;startSize=0;container=1;collapsible=0;childLayout=tableLayout;" vertex="1" parent="1">
          <mxGeometry x="290" y="1053" width="360" height="40" as="geometry" />
        </mxCell>
        <mxCell id="FCIWkxXa6PMADweJJjS5-77" value="" style="shape=tableRow;horizontal=0;startSize=0;swimlaneHead=0;swimlaneBody=0;strokeColor=inherit;top=0;left=0;bottom=0;right=0;collapsible=0;dropTarget=0;fillColor=none;points=[[0,0.5],[1,0.5]];portConstraint=eastwest;" vertex="1" parent="FCIWkxXa6PMADweJJjS5-76">
          <mxGeometry width="360" height="40" as="geometry" />
        </mxCell>
        <mxCell id="FCIWkxXa6PMADweJJjS5-78" value="&lt;b&gt;&lt;u&gt;ItemID&lt;/u&gt;&lt;/b&gt;" style="shape=partialRectangle;html=1;whiteSpace=wrap;connectable=0;strokeColor=inherit;overflow=hidden;fillColor=none;top=0;left=0;bottom=0;right=0;pointerEvents=1;" vertex="1" parent="FCIWkxXa6PMADweJJjS5-77">
          <mxGeometry width="90" height="40" as="geometry">
            <mxRectangle width="90" height="40" as="alternateBounds" />
          </mxGeometry>
        </mxCell>
        <mxCell id="FCIWkxXa6PMADweJJjS5-79" value="Description" style="shape=partialRectangle;html=1;whiteSpace=wrap;connectable=0;strokeColor=inherit;overflow=hidden;fillColor=none;top=0;left=0;bottom=0;right=0;pointerEvents=1;" vertex="1" parent="FCIWkxXa6PMADweJJjS5-77">
          <mxGeometry x="90" width="90" height="40" as="geometry">
            <mxRectangle width="90" height="40" as="alternateBounds" />
          </mxGeometry>
        </mxCell>
        <mxCell id="FCIWkxXa6PMADweJJjS5-80" value="UnitCost" style="shape=partialRectangle;html=1;whiteSpace=wrap;connectable=0;strokeColor=inherit;overflow=hidden;fillColor=none;top=0;left=0;bottom=0;right=0;pointerEvents=1;" vertex="1" parent="FCIWkxXa6PMADweJJjS5-77">
          <mxGeometry x="180" width="90" height="40" as="geometry">
            <mxRectangle width="90" height="40" as="alternateBounds" />
          </mxGeometry>
        </mxCell>
        <mxCell id="FCIWkxXa6PMADweJJjS5-81" value="ItemType" style="shape=partialRectangle;html=1;whiteSpace=wrap;connectable=0;strokeColor=inherit;overflow=hidden;fillColor=none;top=0;left=0;bottom=0;right=0;pointerEvents=1;" vertex="1" parent="FCIWkxXa6PMADweJJjS5-77">
          <mxGeometry x="270" width="90" height="40" as="geometry">
            <mxRectangle width="90" height="40" as="alternateBounds" />
          </mxGeometry>
        </mxCell>
        <mxCell id="FCIWkxXa6PMADweJJjS5-82" value="Item" style="text;html=1;align=center;verticalAlign=middle;resizable=0;points=[];autosize=1;strokeColor=none;fillColor=none;" vertex="1" parent="1">
          <mxGeometry x="235" y="1058" width="50" height="30" as="geometry" />
        </mxCell>
        <mxCell id="FCIWkxXa6PMADweJJjS5-84" value="" style="endArrow=classic;html=1;rounded=0;entryX=0.085;entryY=0.017;entryDx=0;entryDy=0;entryPerimeter=0;exitX=0.301;exitY=1.05;exitDx=0;exitDy=0;exitPerimeter=0;edgeStyle=elbowEdgeStyle;elbow=vertical;" edge="1" parent="1" source="FCIWkxXa6PMADweJJjS5-69" target="FCIWkxXa6PMADweJJjS5-77">
          <mxGeometry width="50" height="50" relative="1" as="geometry">
            <mxPoint x="400" y="1050" as="sourcePoint" />
            <mxPoint x="450" y="1000" as="targetPoint" />
          </mxGeometry>
        </mxCell>
        <mxCell id="FCIWkxXa6PMADweJJjS5-86" value="" style="endArrow=classic;html=1;rounded=0;entryX=0.871;entryY=-0.017;entryDx=0;entryDy=0;entryPerimeter=0;exitX=0.419;exitY=0.958;exitDx=0;exitDy=0;exitPerimeter=0;edgeStyle=orthogonalEdgeStyle;" edge="1" parent="1" source="FCIWkxXa6PMADweJJjS5-49" target="FCIWkxXa6PMADweJJjS5-63">
          <mxGeometry width="50" height="50" relative="1" as="geometry">
            <mxPoint x="400" y="850" as="sourcePoint" />
            <mxPoint x="450" y="800" as="targetPoint" />
            <Array as="points">
              <mxPoint x="469" y="810" />
              <mxPoint x="774" y="810" />
            </Array>
          </mxGeometry>
        </mxCell>
        <mxCell id="FCIWkxXa6PMADweJJjS5-89" value="" style="endArrow=classic;html=1;rounded=0;entryX=0.94;entryY=0;entryDx=0;entryDy=0;entryPerimeter=0;exitX=0.507;exitY=1.017;exitDx=0;exitDy=0;exitPerimeter=0;edgeStyle=orthogonalEdgeStyle;" edge="1" parent="1" source="FCIWkxXa6PMADweJJjS5-39" target="FCIWkxXa6PMADweJJjS5-63">
          <mxGeometry width="50" height="50" relative="1" as="geometry">
            <mxPoint x="400" y="850" as="sourcePoint" />
            <mxPoint x="450" y="800" as="targetPoint" />
            <Array as="points">
              <mxPoint x="447" y="710" />
              <mxPoint x="793" y="710" />
            </Array>
          </mxGeometry>
        </mxCell>
        <mxCell id="FCIWkxXa6PMADweJJjS5-91" value="" style="endArrow=classic;html=1;rounded=0;entryX=0.045;entryY=1.05;entryDx=0;entryDy=0;entryPerimeter=0;edgeStyle=orthogonalEdgeStyle;" edge="1" parent="1" target="FCIWkxXa6PMADweJJjS5-39">
          <mxGeometry width="50" height="50" relative="1" as="geometry">
            <mxPoint x="310" y="950" as="sourcePoint" />
            <mxPoint x="450" y="800" as="targetPoint" />
            <Array as="points">
              <mxPoint x="310" y="900" />
              <mxPoint x="160" y="900" />
              <mxPoint x="160" y="690" />
              <mxPoint x="158" y="690" />
            </Array>
          </mxGeometry>
        </mxCell>
        <mxCell id="FCIWkxXa6PMADweJJjS5-94" value="" style="endArrow=classic;html=1;rounded=0;exitX=0.082;exitY=1.042;exitDx=0;exitDy=0;exitPerimeter=0;edgeStyle=orthogonalEdgeStyle;" edge="1" parent="1" source="FCIWkxXa6PMADweJJjS5-49" target="FCIWkxXa6PMADweJJjS5-58">
          <mxGeometry width="50" height="50" relative="1" as="geometry">
            <mxPoint x="400" y="850" as="sourcePoint" />
            <mxPoint x="450" y="800" as="targetPoint" />
            <Array as="points">
              <mxPoint x="291" y="803" />
              <mxPoint x="340" y="803" />
            </Array>
          </mxGeometry>
        </mxCell>
        <mxCell id="FCIWkxXa6PMADweJJjS5-95" value="" style="endArrow=classic;html=1;rounded=0;entryX=0.093;entryY=1.033;entryDx=0;entryDy=0;entryPerimeter=0;exitX=0.25;exitY=-0.008;exitDx=0;exitDy=0;exitPerimeter=0;edgeStyle=orthogonalEdgeStyle;" edge="1" parent="1" source="FCIWkxXa6PMADweJJjS5-49" target="FCIWkxXa6PMADweJJjS5-39">
          <mxGeometry width="50" height="50" relative="1" as="geometry">
            <mxPoint x="400" y="850" as="sourcePoint" />
            <mxPoint x="450" y="800" as="targetPoint" />
            <Array as="points">
              <mxPoint x="380" y="710" />
              <mxPoint x="188" y="710" />
            </Array>
          </mxGeometry>
        </mxCell>
        <mxCell id="FCIWkxXa6PMADweJJjS5-96" value="" style="endArrow=classic;html=1;rounded=0;exitX=0.633;exitY=-0.117;exitDx=0;exitDy=0;exitPerimeter=0;entryX=0.142;entryY=1.1;entryDx=0;entryDy=0;entryPerimeter=0;edgeStyle=orthogonalEdgeStyle;" edge="1" parent="1" source="FCIWkxXa6PMADweJJjS5-39" target="FCIWkxXa6PMADweJJjS5-32">
          <mxGeometry width="50" height="50" relative="1" as="geometry">
            <mxPoint x="400" y="520" as="sourcePoint" />
            <mxPoint x="450" y="470" as="targetPoint" />
            <Array as="points">
              <mxPoint x="526" y="605" />
              <mxPoint x="174" y="605" />
            </Array>
          </mxGeometry>
        </mxCell>
        <mxCell id="FCIWkxXa6PMADweJJjS5-97" value="" style="endArrow=classic;html=1;rounded=0;exitX=0.778;exitY=0;exitDx=0;exitDy=0;exitPerimeter=0;entryX=0.213;entryY=1;entryDx=0;entryDy=0;entryPerimeter=0;edgeStyle=orthogonalEdgeStyle;" edge="1" parent="1" source="FCIWkxXa6PMADweJJjS5-39" target="FCIWkxXa6PMADweJJjS5-26">
          <mxGeometry width="50" height="50" relative="1" as="geometry">
            <mxPoint x="400" y="520" as="sourcePoint" />
            <mxPoint x="450" y="470" as="targetPoint" />
            <Array as="points">
              <mxPoint x="616" y="500" />
              <mxPoint x="355" y="500" />
            </Array>
          </mxGeometry>
        </mxCell>
        <mxCell id="FCIWkxXa6PMADweJJjS5-98" value="" style="endArrow=classic;html=1;rounded=0;entryX=1;entryY=0.5;entryDx=0;entryDy=0;exitX=0.916;exitY=-0.067;exitDx=0;exitDy=0;exitPerimeter=0;edgeStyle=orthogonalEdgeStyle;" edge="1" parent="1" source="FCIWkxXa6PMADweJJjS5-39" target="FCIWkxXa6PMADweJJjS5-19">
          <mxGeometry width="50" height="50" relative="1" as="geometry">
            <mxPoint x="400" y="520" as="sourcePoint" />
            <mxPoint x="450" y="470" as="targetPoint" />
            <Array as="points">
              <mxPoint x="703" y="350" />
            </Array>
          </mxGeometry>
        </mxCell>
        <mxCell id="FCIWkxXa6PMADweJJjS5-100" value="" style="endArrow=classic;html=1;rounded=0;entryX=0.1;entryY=1.067;entryDx=0;entryDy=0;entryPerimeter=0;exitX=0.632;exitY=0.033;exitDx=0;exitDy=0;exitPerimeter=0;" edge="1" parent="1" source="FCIWkxXa6PMADweJJjS5-32" target="FCIWkxXa6PMADweJJjS5-26">
          <mxGeometry width="50" height="50" relative="1" as="geometry">
            <mxPoint x="400" y="520" as="sourcePoint" />
            <mxPoint x="450" y="470" as="targetPoint" />
          </mxGeometry>
        </mxCell>
        <mxCell id="FCIWkxXa6PMADweJJjS5-101" value="" style="endArrow=classic;html=1;rounded=0;entryX=0.758;entryY=1.05;entryDx=0;entryDy=0;entryPerimeter=0;exitX=0.37;exitY=0.05;exitDx=0;exitDy=0;exitPerimeter=0;edgeStyle=orthogonalEdgeStyle;" edge="1" parent="1" source="FCIWkxXa6PMADweJJjS5-32" target="FCIWkxXa6PMADweJJjS5-19">
          <mxGeometry width="50" height="50" relative="1" as="geometry">
            <mxPoint x="400" y="520" as="sourcePoint" />
            <mxPoint x="450" y="470" as="targetPoint" />
            <Array as="points">
              <mxPoint x="245" y="480" />
              <mxPoint x="120" y="480" />
              <mxPoint x="120" y="400" />
              <mxPoint x="298" y="400" />
            </Array>
          </mxGeometry>
        </mxCell>
        <mxCell id="FCIWkxXa6PMADweJJjS5-103" value="" style="endArrow=classic;html=1;rounded=0;exitX=0.8;exitY=0.05;exitDx=0;exitDy=0;exitPerimeter=0;entryX=0.904;entryY=1.083;entryDx=0;entryDy=0;entryPerimeter=0;edgeStyle=orthogonalEdgeStyle;" edge="1" parent="1" source="FCIWkxXa6PMADweJJjS5-26" target="FCIWkxXa6PMADweJJjS5-19">
          <mxGeometry width="50" height="50" relative="1" as="geometry">
            <mxPoint x="400" y="420" as="sourcePoint" />
            <mxPoint x="450" y="370" as="targetPoint" />
            <Array as="points">
              <mxPoint x="508" y="400" />
              <mxPoint x="336" y="400" />
            </Array>
          </mxGeometry>
        </mxCell>
        <mxCell id="FCIWkxXa6PMADweJJjS5-104" value="" style="endArrow=classic;html=1;rounded=0;entryX=0.858;entryY=0.033;entryDx=0;entryDy=0;entryPerimeter=0;exitX=0.5;exitY=1.017;exitDx=0;exitDy=0;exitPerimeter=0;edgeStyle=orthogonalEdgeStyle;" edge="1" parent="1" source="FCIWkxXa6PMADweJJjS5-13" target="FCIWkxXa6PMADweJJjS5-19">
          <mxGeometry width="50" height="50" relative="1" as="geometry">
            <mxPoint x="400" y="220" as="sourcePoint" />
            <mxPoint x="450" y="170" as="targetPoint" />
            <Array as="points">
              <mxPoint x="520" y="270" />
              <mxPoint x="324" y="270" />
            </Array>
          </mxGeometry>
        </mxCell>
        <mxCell id="FCIWkxXa6PMADweJJjS5-105" value="" style="endArrow=classic;html=1;rounded=0;entryX=0.168;entryY=1.05;entryDx=0;entryDy=0;entryPerimeter=0;exitX=0.168;exitY=0.067;exitDx=0;exitDy=0;exitPerimeter=0;edgeStyle=orthogonalEdgeStyle;" edge="1" parent="1" source="FCIWkxXa6PMADweJJjS5-19" target="FCIWkxXa6PMADweJJjS5-7">
          <mxGeometry width="50" height="50" relative="1" as="geometry">
            <mxPoint x="400" y="220" as="sourcePoint" />
            <mxPoint x="450" y="170" as="targetPoint" />
            <Array as="points">
              <mxPoint x="145" y="230" />
              <mxPoint x="245" y="230" />
            </Array>
          </mxGeometry>
        </mxCell>
        <mxCell id="FCIWkxXa6PMADweJJjS5-106" value="" style="endArrow=classic;html=1;rounded=0;entryX=0.252;entryY=0.967;entryDx=0;entryDy=0;entryPerimeter=0;exitX=0.179;exitY=0.017;exitDx=0;exitDy=0;exitPerimeter=0;edgeStyle=orthogonalEdgeStyle;" edge="1" parent="1" source="FCIWkxXa6PMADweJJjS5-13" target="FCIWkxXa6PMADweJJjS5-7">
          <mxGeometry width="50" height="50" relative="1" as="geometry">
            <mxPoint x="400" y="220" as="sourcePoint" />
            <mxPoint x="450" y="170" as="targetPoint" />
            <Array as="points">
              <mxPoint x="433" y="120" />
              <mxPoint x="268" y="120" />
            </Array>
          </mxGeometry>
        </mxCell>
      </root>
    </mxGraphModel>
  </diagram>
</mxfile>
